<?xml version="1.0" encoding="utf-8"?>
<!-- Generator: Adobe Illustrator 25.3.1, SVG Export Plug-In . SVG Version: 6.00 Build 0)  -->
<svg version="1.1"
	 id="Layer_1" xmlns:cc="http://creativecommons.org/ns#" xmlns:dc="http://purl.org/dc/elements/1.1/" xmlns:rdf="http://www.w3.org/1999/02/22-rdf-syntax-ns#"
	 xmlns="http://www.w3.org/2000/svg" xmlns:xlink="http://www.w3.org/1999/xlink" x="0px" y="0px" viewBox="0 0 500 493"
	 style="enable-background:new 0 0 500 493;" xml:space="preserve">
<style type="text/css">
	.st0{fill:#231F20;}
</style>
<desc  xmlns:ian_image_library="https://ian.umces.edu/media-library/">
	<ian_image_library:title>copepod2</ian_image_library:title>
	<ian_image_library:descr>generic copepod</ian_image_library:descr>
	<ian_image_library:scene>
		<ian_image_library:contains>crustacean, marine, plankton, zooplankton, aquatic, species</ian_image_library:contains>
		<ian_image_library:when>2017-05-11</ian_image_library:when>
	</ian_image_library:scene>
</desc>
<path class="st0" d="M14,250.7c0,0,49.1-70.8,82.8-95.6s96.4-23.8,96.4-23.8l37.2-18.9c0,0,22-59.8,57.7-77.3
	C323.9,17.6,427.4,4.4,427.4,4.4S336.6,37,299.4,52.7c-37.2,15.8-50.7,62.6-50.7,62.6l15,15.7c0,0,4.8-8.8,12.1-7.2
	c21.3,18.5,33.1,57.7,33.1,57.7s12.6-6.7,20.1-6.2c7.5,0.5,37.1,20.1,37.1,20.1s-24.9-3.9-29.6-4.1c-4.7-0.3-14,3-13.9,6.5
	c0.2,3.5,8.7,12.2,8.7,12.2s9.7,3.6,13.8,6.5c4.1,3.1,25.1,29.2,25.6,31.9c0.6,2.8-31.8-22.2-30.7-16.5c1.1,5.6,24.3,73.3,32.9,96.8
	s17.3,38.7,21.7,43.4c4.6,4.8,32.7,48.4,64.5,56.1c2.9,1.1,14.8,28.1,8.6,35c-6.2,6.9-19,0.5-22-4.3c-3-4.9-8.1-23.1-11.9-28.6
	c-3.8-5.6-36-46.4-42.6-41.9c-1.7,3.4,22.9,53.7,25.6,58c2.5,4.3,16.1,9.2,18.2,12.7c2,3.5-2,29.5-5.8,30.4
	c-3.9,0.8-31.2-12.9-33.9-20c-2.8-7.1,7.1-13.5,5.2-22c-2-8.5-35.1-86.2-43.6-96.7c-16.6-20.4-62.6-51.5-96.5-85
	c-4.2,3.5,12.4,47.8,9.8,47.4c-2.5-0.4-17.4-23.3-18.8-31.3c-1.5-7.9-5.5-27.3-5.5-27.3s-12.4,5.1-10.9,42.5
	c-1.9,4.9-9.8-29.1-8.7-39.3c1-10.2,4.8-25.4,4.8-25.4s-37.1-44.1-36.8-62.5c1.7-3.6,12.7-5.9,12.7-5.9l-10.9-9.6
	c0,0-54.7-15.2-91.3,14.9S14,250.7,14,250.7z"/>
</svg>
