<?xml version="1.0" encoding="utf-8"?>
<!-- Generator: Adobe Illustrator 25.3.1, SVG Export Plug-In . SVG Version: 6.00 Build 0)  -->
<svg version="1.1"
	 id="Layer_1" xmlns:cc="http://creativecommons.org/ns#" xmlns:dc="http://purl.org/dc/elements/1.1/" xmlns:rdf="http://www.w3.org/1999/02/22-rdf-syntax-ns#"
	 xmlns="http://www.w3.org/2000/svg" xmlns:xlink="http://www.w3.org/1999/xlink" x="0px" y="0px" viewBox="0 0 500 493"
	 style="enable-background:new 0 0 500 493;" xml:space="preserve">
<style type="text/css">
	.st0{fill:#231F20;}
</style>
<desc  xmlns:ian_image_library="https://ian.umces.edu/media-library/">
	<ian_image_library:title>copepod2</ian_image_library:title>
	<ian_image_library:descr>generic copepod</ian_image_library:descr>
	<ian_image_library:scene>
		<ian_image_library:contains>crustacean, marine, plankton, zooplankton, aquatic, species</ian_image_library:contains>
		<ian_image_library:when>2017-05-11</ian_image_library:when>
	</ian_image_library:scene>
</desc>
<path class="st0" d="M9.6,227.5c0,0,52.7-68.2,87.7-91.1s97.5-18.8,97.5-18.8l38.2-17c0,0,25.1-58.6,61.6-74.2S435.2,3.2,435.2,3.2
	S342.9,31,305,44.7c-38,13.8-53.9,59.9-53.9,59.9l14.2,16.5c0,0,5.2-8.5,12.4-6.6c20.3,19.6,30.1,59.3,30.1,59.3s12.9-6.1,20.4-5.2
	c7.5,0.9,36,22,36,22s-24.6-5.2-29.3-5.6c-4.6-0.5-14.2,2.2-14.2,5.7c0,3.5,8.1,12.6,8.1,12.6s9.5,4.1,13.5,7.3
	c3.9,3.3,23.6,30.4,23.9,33.2c0.4,2.8-30.6-23.8-29.8-18.1c0.8,5.7,20.4,74.5,27.8,98.4c7.4,24,15.3,39.6,19.4,44.5
	c4.3,5.1,30.1,50.1,61.5,59.4c2.9,1.2,13.3,28.8,6.8,35.4s-19-0.5-21.7-5.5c-2.8-5.1-6.9-23.4-10.3-29.2
	c-3.5-5.8-33.5-48.2-40.3-44.1c-1.9,3.3,20.1,54.9,22.5,59.3c2.3,4.4,15.6,10,17.5,13.6c1.9,3.6-3.5,29.4-7.4,30
	c-3.9,0.5-30.5-14.5-32.8-21.7c-2.4-7.2,7.8-13.1,6.3-21.7c-1.6-8.5-30.6-87.9-38.5-98.9c-15.5-21.2-59.8-54.7-91.9-90
	c-4.3,3.3,9.8,48.4,7.3,47.8c-2.5-0.5-16.2-24.2-17.1-32.2c-1-7.9-4-27.6-4-27.6s-12.6,4.5-13.1,41.9c-2.2,4.8-8.2-29.6-6.7-39.7
	c1.6-10.1,6.1-25.1,6.1-25.1s-34.8-45.9-33.5-64.3c1.9-3.5,13-5.2,13-5.2l-10.4-10.2c0,0-53.8-18-92,10.1S9.6,227.5,9.6,227.5z"/>
</svg>
