
        <svg xmlns:rdf="http://www.w3.org/1999/02/22-rdf-syntax-ns#" xmlns="http://www.w3.org/2000/svg" xmlns:cc="http://creativecommons.org/ns#" xmlns:xlink="http://www.w3.org/1999/xlink" xmlns:dc="http://purl.org/dc/elements/1.1/" x="0px" y="0px" width="500" height="493" viewBox="0 0 500 493" xml:space="preserve">
            <title>copepod2</title>
            <desc xmlns:ian_image_library="https://ian.umces.edu/media-library/">
                <ian_image_library:title>copepod2</ian_image_library:title>
                <ian_image_library:descr>generic copepod</ian_image_library:descr>
                <ian_image_library:scene>
                    <ian_image_library:contains>crustacean, marine, plankton, zooplankton, aquatic, species</ian_image_library:contains>
                    <ian_image_library:when>2017-05-11</ian_image_library:when>
                </ian_image_library:scene>
            </desc>
            <metadata id="metadata-iil-21ee4702d588050451467cdba15811ed">
                <rdf:RDF>
                <cc:Work
                rdf:about="">
                <dc:format>image/svg+xml</dc:format>
                <dc:type
                rdf:resource="http://purl.org/dc/dcmitype/StillImage" />
                <cc:license
                rdf:resource="http://creativecommons.org/licenses/by-sa/3.0/" />
                <dc:title>copepod2</dc:title>
                <dc:date>2017-05-11</dc:date>
                <dc:creator>
                    <cc:Agent>
                        <dc:title></dc:title>
                    </cc:Agent>
                </dc:creator>
                <dc:rights>
                <cc:Agent>
                    <dc:title></dc:title>
                </cc:Agent>
                </dc:rights>
                <dc:publisher>
                <cc:Agent>
                    <dc:title>Integration and Application Network</dc:title>
                </cc:Agent>
                </dc:publisher>
                <dc:identifier>https://ian.umces.edu/media-library/copepod2/</dc:identifier>
                <dc:source>https://ian.umces.edu/media-library/copepod2/</dc:source>
                <dc:language>en-US</dc:language>
                <dc:subject>
                <rdf:Bag>
                    <rdf:li>crustacean, marine, plankton, zooplankton, aquatic, species</rdf:li>
                </rdf:Bag>
                </dc:subject>
                <dc:coverage></dc:coverage>
                <dc:description>generic copepod</dc:description>
                <dc:contributor>
                <cc:Agent>
                    <dc:title></dc:title>
                </cc:Agent>
                </dc:contributor>
            </cc:Work>
            <cc:License
                rdf:about="http://creativecommons.org/licenses/by-sa/3.0/">
                <cc:permits
                rdf:resource="http://creativecommons.org/ns#Reproduction" />
                <cc:permits
                rdf:resource="http://creativecommons.org/ns#Distribution" />
                <cc:requires
                rdf:resource="http://creativecommons.org/ns#Notice" />
                <cc:requires
                rdf:resource="http://creativecommons.org/ns#Attribution" />
                <cc:permits
                rdf:resource="http://creativecommons.org/ns#DerivativeWorks" />
                <cc:requires
                rdf:resource="http://creativecommons.org/ns#ShareAlike" />
            </cc:License>
            </rdf:RDF>
            </metadata>
            
<path fill="#231F20" d="M0,83.1c0,0,77.7-45.4,120.6-53.9s101.8,20,101.8,20l43.6-1.5c0,0,47.2-46.9,88.7-47.7S500,32.4,500,32.4
	s-100.3-9.2-142.4-10.8c-42.2-1.5-75.6,36.9-75.6,36.9l7.3,21.5c0,0,8.4-6.2,14.6-1.5c12,26.9,5.9,69.2,5.9,69.2s14.9-0.8,21.8,3
	c6.9,3.8,26.2,35.4,26.2,35.4s-21.8-14.7-26.2-16.9c-4.3-2.3-14.6-3.4-16,0s2.9,15.4,2.9,15.4s7.6,7.7,10.2,12.3
	c2.5,4.7,10.9,38.7,10.2,41.5c-0.7,2.9-20.3-35-21.8-29.2c-1.4,5.8-9.4,80.1-11.6,106.2s-0.7,44.3,1.4,50.7
	c2.2,6.6,9.6,60.3,36.3,81.6c2.3,2.3,1.6,33.1-7.3,36.9c-8.9,3.8-18.2-7.9-18.9-13.8c-0.7-6,2.5-25.4,1.4-32.3
	c-1.1-7-13.6-59.8-21.8-58.5c-3.1,2.5-2,61-1.4,66.2c0.5,5.2,11.2,15.8,11.6,20c0.4,4.2-14.9,27.1-18.9,26.2c-4-1-23.8-26-23.3-33.9
	c0.5-7.9,12.7-9.6,14.6-18.5c1.8-8.9,4.8-97.1,1.4-110.8c-6.7-26.6-36.5-76.4-53.8-123.1c-5.5,1.5-9.4,50.7-11.6,49.2
	c-2.2-1.5-6.2-29.8-4-37.9c2.1-8.1,6.9-28.3,6.9-28.3s-14-0.6-29.1,35.4c-4,3.8,3.6-31.9,9.1-41.1c5.5-9.2,15.7-21.9,15.7-21.9
	s-15.7-58.1-7.3-75.4c3.2-2.7,14.6,0,14.6,0L215,72.2c0,0-45.1-38.5-93-26.2S0,83.1,0,83.1z"/>
</svg>
