<?xml version="1.0" encoding="utf-8"?>
<!-- Generator: Adobe Illustrator 25.3.1, SVG Export Plug-In . SVG Version: 6.00 Build 0)  -->
<svg version="1.1"
	 id="Layer_1" xmlns:cc="http://creativecommons.org/ns#" xmlns:dc="http://purl.org/dc/elements/1.1/" xmlns:rdf="http://www.w3.org/1999/02/22-rdf-syntax-ns#"
	 xmlns="http://www.w3.org/2000/svg" xmlns:xlink="http://www.w3.org/1999/xlink" x="0px" y="0px" viewBox="0 0 500 493"
	 style="enable-background:new 0 0 500 493;" xml:space="preserve">
<style type="text/css">
	.st0{fill:#231F20;}
</style>
<desc  xmlns:ian_image_library="https://ian.umces.edu/media-library/">
	<ian_image_library:title>copepod2</ian_image_library:title>
	<ian_image_library:descr>generic copepod</ian_image_library:descr>
	<ian_image_library:scene>
		<ian_image_library:contains>crustacean, marine, plankton, zooplankton, aquatic, species</ian_image_library:contains>
		<ian_image_library:when>2017-05-11</ian_image_library:when>
	</ian_image_library:scene>
</desc>
<path class="st0" d="M14,286.4c0,0,42.7-74.8,74.2-102.4s94-32.2,94-32.2l35.4-22.1c0,0,16.7-61.5,50.7-82S404.3,5,404.3,5
	s-87.6,40.4-123.2,59.2c-35.7,19-45,66.8-45,66.8l16.3,14.3c0,0,4-9.2,11.4-8.2c22.8,16.6,38,54.6,38,54.6s12-7.8,19.5-7.9
	c7.5-0.2,38.7,16.8,38.7,16.8s-25.1-1.8-29.8-1.5c-4.7,0.2-13.7,4.2-13.3,7.7c0.5,3.5,9.8,11.4,9.8,11.4s10,2.7,14.3,5.3
	c4.3,2.7,27.6,26.9,28.3,29.5c0.8,2.7-33.6-19.3-32.1-13.8c1.6,5.5,30.6,70.9,41.2,93.6c10.7,22.7,20.6,37.1,25.4,41.4
	c5,4.4,36.8,45.4,69.2,50.3c3,0.8,17.2,26.7,11.6,34.1c-5.6,7.4-18.9,2.2-22.3-2.4c-3.5-4.6-10.1-22.3-14.3-27.5
	c-4.3-5.3-39.9-43.1-46.1-38.1c-1.4,3.6,27.5,51.5,30.5,55.6c2.9,4.1,16.9,7.7,19.2,11c2.3,3.3,0.6,29.6-3.1,30.8
	c-3.8,1.1-32.2-10.2-35.5-17c-3.4-6.8,5.9-14,3.2-22.3c-2.8-8.2-42.5-82.8-51.9-92.5c-18.3-18.8-66.8-45.9-103.5-76.3
	c-3.8,3.9,16.5,46.5,13.9,46.3c-2.5-0.2-19.4-21.7-21.5-29.5c-2.1-7.7-7.8-26.8-7.8-26.8s-11.9,6.2-7.2,43.3
	c-1.5,5.1-12.3-28.2-12.1-38.4s2.5-25.7,2.5-25.7s-40.8-40.7-42.1-59c1.4-3.8,12.1-7,12.1-7l-11.7-8.6c0,0-55.8-10.3-89.7,22.8
	S14,286.4,14,286.4z"/>
</svg>
